#N canvas 1655 -117 698 358 10;
#X obj 291 221 osc~;
#X obj 284 277 dac~;
#X floatatom 289 161 5 0 0 0 - - -, f 5;
#X obj 256 95 route 0 1 2;
#X obj 257 72 netreceive 3001 1;
#X obj 447 241 print msg;
#X connect 0 0 1 0;
#X connect 0 0 1 1;
#X connect 2 0 0 0;
#X connect 3 0 2 0;
#X connect 3 0 5 0;
#X connect 4 0 3 0;
