#N canvas 1471 -250 1589 907 10;
#X obj 291 221 osc~;
#X obj 318 376 dac~;
#X floatatom 289 161 5 0 0 0 - - -, f 5;
#X obj 98 49 print msg;
#X obj 110 190 phasor~;
#X obj 376 324 *~;
#X obj 519 281 vsl 15 128 0 1 0 0 empty empty empty 0 -9 0 10 -262144
-1 -1 0 1;
#X floatatom 129 144 5 0 0 0 - - -, f 5;
#X obj 256 95 route;
#X obj 33 100 unpack 0 0 0;
#X obj 12 168 print 1;
#X obj 13 233 print 2;
#X obj 42 298 print 3;
#X obj 257 72 netreceive 3000 1;
#X obj 649 178 osc~;
#X floatatom 647 118 5 0 0 0 - - -, f 5;
#X obj 456 6 print msg;
#X obj 468 147 phasor~;
#X floatatom 487 102 5 0 0 0 - - -, f 5;
#X obj 614 52 route;
#X obj 391 57 unpack 0 0 0;
#X obj 370 126 print 1;
#X obj 371 190 print 2;
#X obj 400 256 print 3;
#X obj 615 29 netreceive 3001 1;
#X connect 0 0 5 0;
#X connect 2 0 0 0;
#X connect 4 0 5 0;
#X connect 5 0 1 0;
#X connect 5 0 1 1;
#X connect 6 0 5 1;
#X connect 7 0 4 0;
#X connect 8 0 3 0;
#X connect 8 0 9 0;
#X connect 9 0 10 0;
#X connect 9 0 7 0;
#X connect 9 1 11 0;
#X connect 9 1 2 0;
#X connect 9 2 12 0;
#X connect 13 0 8 0;
#X connect 14 0 5 0;
#X connect 15 0 14 0;
#X connect 17 0 5 0;
#X connect 18 0 17 0;
#X connect 19 0 16 0;
#X connect 19 0 20 0;
#X connect 20 0 21 0;
#X connect 20 0 18 0;
#X connect 20 1 22 0;
#X connect 20 1 15 0;
#X connect 20 2 23 0;
#X connect 24 0 19 0;
