#N canvas 326 162 579 526 10;
#X obj 178 56 cnv 15 200 220 empty empty empty 20 12 0 14 -10490 -66577
0;
#X obj 202 92 reverbonoffnousarmas5;
#X obj 475 307 outlet~;
#X obj 494 244 outlet~;
#X text 226 60 RIDE;
#X obj 45 104 socket02_dinamic, f 9;
#X obj 50 53 inlet;
#X connect 1 0 2 0;
#X connect 1 1 3 0;
#X connect 5 0 1 0;
#X connect 5 1 1 1;
#X connect 6 0 5 0;
#X coords 3 -1 1 1 205 225 2 175 55;
