#N canvas 645 162 579 526 10;
#X obj 178 56 cnv 15 200 220 empty empty empty 20 12 0 14 -10490 -66577
0;
#X text 226 60 osc wawa;
#X obj 475 307 outlet~;
#X obj 494 244 outlet~;
#X obj 45 103 socket02, f 9;
#X obj 202 93 reverbonoffnousarmas2;
#X connect 4 0 5 0;
#X connect 4 1 5 1;
#X connect 5 0 2 0;
#X connect 5 1 3 0;
#X coords 3 -1 1 1 205 225 2 175 55;
