#N canvas 306 118 579 503 10;
#X obj 178 56 cnv 15 150 400 empty empty empty 20 12 0 14 -233017 -66577
0;
#X obj 72 286 *~;
#X obj 343 95 vsl 15 128 0 1 0 0 empty empty empty 0 -9 0 10 -262144
-1 -1 2200 1;
#X obj 197 240 hsl 128 15 0 1 0 0 empty empty empty -2 -6 0 10 -262144
-1 -1 6400 1;
#X floatatom 65 347 5 0 0 0 - - -, f 5;
#X floatatom 120 339 5 0 0 0 - - -, f 5;
#X obj 48 375 *~;
#X obj 106 371 *~;
#X obj 51 416 select 2;
#X msg 126 307 1;
#X obj 171 325 -;
#X obj 53 452 dac~;
#X obj 44 103 socket3, f 9;
#X obj 184 84 reverbonoffnousarmas3;
#X text 191 63 granular;
#X connect 1 0 6 0;
#X connect 1 0 7 0;
#X connect 2 0 1 1;
#X connect 3 0 4 0;
#X connect 3 0 8 0;
#X connect 3 0 10 1;
#X connect 4 0 6 1;
#X connect 5 0 7 1;
#X connect 6 0 11 0;
#X connect 7 0 11 1;
#X connect 8 1 9 0;
#X connect 9 0 10 0;
#X connect 10 0 5 0;
#X connect 12 0 13 0;
#X connect 12 1 13 1;
#X connect 13 0 1 0;
#X connect 13 1 1 0;
#X coords 0 -1 1 1 190 216 2 179 59;
