#N canvas 326 94 579 526 10;
#X obj 178 56 cnv 15 200 220 empty empty empty 20 12 0 14 -10490 -66577
0;
#X obj 202 92 reverbonoffnousarmas5;
#X obj 475 307 outlet~;
#X obj 494 244 outlet~;
#X obj 45 103 socket04_granular, f 9;
#X text 226 60 RIDE 2;
#X connect 1 0 2 0;
#X connect 1 1 3 0;
#X connect 4 0 1 0;
#X connect 4 1 1 1;
#X coords 3 -1 1 1 205 225 2 175 55;
