#N canvas 0 28 1366 717 12;
#X obj 41 951 dac~;
#X obj -65 290 *~;
#X obj 87 104 vsl 15 128 0 1 0 0 empty empty empty 0 -9 0 10 -262144
-1 -1 0 1;
#X obj 75 16 socket0;
#X obj 441 48 socket1;
#X obj 449 109 *~;
#X obj 276 99 vsl 15 128 0 1 0 0 empty empty empty 0 -9 0 10 -262144
-1 -1 0 1;
#X obj 743 111 *~;
#X obj 499 100 vsl 15 128 0 1 0 0 empty empty empty 0 -9 0 10 -262144
-1 -1 0 1;
#X obj 708 58 socket2;
#X text 311 68 phasor con efectos;
#X text 519 70 open hihat;
#X obj 1063 113 *~;
#X obj 648 66 vsl 15 128 0 1 0 0 empty empty empty 0 -9 0 10 -262144
-1 -1 0 1;
#X obj 1051 52 socket3;
#X obj -72 37 netreceive 3002 1;
#X obj 612 69 vu 15 120 empty empty -1 -8 0 10 -66577 -1 1 0;
#X obj 86 279 tgl 15 0 empty empty empty 17 7 0 10 -262144 -1 -1 0
1;
#X obj -40 845 test;
#X obj 659 290 tgl 15 0 empty empty empty 17 7 0 10 -262144 -1 -1 0
1;
#X obj 69 619 tgl 15 0 empty empty empty 17 7 0 10 -262144 -1 -1 0
1;
#X obj 276 289 tgl 15 0 empty empty empty 17 7 0 10 -262144 -1 -1 0
1;
#X obj 654 607 tgl 25 0 empty empty empty 17 7 0 10 -262144 -1 -1 0
1;
#X obj 272 619 tgl 15 0 empty empty empty 17 7 0 10 -262144 -1 -1 0
1;
#X obj 554 195 tgl 15 0 empty empty empty 17 7 0 10 -262144 -1 -1 0
1;
#X obj 460 615 tgl 15 0 empty empty empty 17 7 0 10 -262144 -1 -1 0
1;
#X text 266 689 8;
#X obj 84 250 hsl 128 15 0 1 0 0 empty empty empty -2 -6 0 10 -262144
-1 -1 0 1;
#X floatatom -72 351 5 0 0 0 - - -, f 5;
#X floatatom -17 343 5 0 0 0 - - -, f 5;
#X obj -89 379 *~;
#X obj -31 375 *~;
#X obj 29 287 select 2;
#X msg -11 311 1;
#X obj 34 329 -;
#X obj 291 258 hsl 128 15 0 1 0 0 empty empty empty -2 -6 0 10 -262144
-1 -1 0 1;
#X floatatom 342 186 5 0 0 0 - - -, f 5;
#X floatatom 891 341 5 0 0 0 - - -, f 5;
#X obj 292 156 *~;
#X obj 357 147 *~;
#X obj 490 155 select 2;
#X msg 450 179 1;
#X obj 495 197 -;
#X obj 486 246 hsl 128 15 0 1 0 0 empty empty empty -2 -6 0 10 -262144
-1 -1 0 1;
#X floatatom 903 285 5 0 0 0 - - -, f 5;
#X floatatom 931 238 5 0 0 0 - - -, f 5;
#X obj 714 260 *~;
#X obj 772 256 *~;
#X obj 832 168 select 2;
#X msg 792 192 1;
#X obj 837 210 -;
#X obj 668 250 hsl 128 15 0 1 0 0 empty empty empty -2 -6 0 10 -262144
-1 -1 1000 1;
#X floatatom 1025 264 5 0 0 0 - - -, f 5;
#X floatatom 1080 256 5 0 0 0 - - -, f 5;
#X obj 1008 292 *~;
#X obj 1066 288 *~;
#X obj 1126 200 select 2;
#X msg 1086 224 1;
#X obj 1131 242 -;
#X text 704 53 Granular;
#X obj 1353 130 *~;
#X obj 682 589 hsl 128 15 0 1 0 0 empty empty empty -2 -6 0 10 -262144
-1 -1 7300 1;
#X floatatom 1315 281 5 0 0 0 - - -, f 5;
#X floatatom 1370 273 5 0 0 0 - - -, f 5;
#X obj 1298 309 *~;
#X obj 1356 305 *~;
#X obj 1001 371 select 2;
#X msg 1376 241 1;
#X obj 1421 259 -;
#X obj 1341 69 socket4;
#X text 696 372 Tape echo;
#X obj 116 96 reverbonoffnousarmas;
#X obj 468 422 reverbonoffnousarmas2;
#X obj 1287 511 *~;
#X obj 443 438 vsl 15 128 0 1 0 0 empty empty empty 0 -9 0 10 -262144
-1 -1 7200 1;
#X obj 466 582 hsl 128 15 0 1 0 0 empty empty empty -2 -6 0 10 -262144
-1 -1 6400 1;
#X floatatom 1275 632 5 0 0 0 - - -, f 5;
#X floatatom 1330 624 5 0 0 0 - - -, f 5;
#X obj 1258 660 *~;
#X obj 1316 656 *~;
#X obj 1376 568 select 2;
#X msg 1336 592 1;
#X obj 1381 610 -;
#X obj 1279 447 socket5;
#X obj 304 94 reverbonoffnousarmas3;
#X obj 688 78 reverbonoffnousarmas4;
#X obj 92 434 reverbonoffnousarmas6;
#X obj 904 787 *~;
#X obj 64 438 vsl 15 128 0 1 0 0 empty empty empty 0 -9 0 10 -262144
-1 -1 9400 1;
#X obj 90 594 hsl 128 15 0 1 0 0 empty empty empty -2 -6 0 10 -262144
-1 -1 3000 1;
#X floatatom 892 908 5 0 0 0 - - -, f 5;
#X floatatom 947 900 5 0 0 0 - - -, f 5;
#X obj 875 936 *~;
#X obj 933 932 *~;
#X obj 993 844 select 2;
#X msg 953 868 1;
#X obj 998 886 -;
#X obj 887 691 netreceive 3006 1;
#X text 554 386 DIGE;
#X obj 896 723 socket6;
#X text 130 391 RIDE;
#X obj 1545 825 *~;
#X obj 258 445 vsl 15 128 0 1 0 0 empty empty empty 0 -9 0 10 -262144
-1 -1 0 1;
#X obj 291 590 hsl 128 15 0 1 0 0 empty empty empty -2 -6 0 10 -262144
-1 -1 0 1;
#X floatatom 1533 946 5 0 0 0 - - -, f 5;
#X floatatom 1588 938 5 0 0 0 - - -, f 5;
#X obj 1516 974 *~;
#X obj 1574 970 *~;
#X obj 1634 882 select 2;
#X msg 1594 906 1;
#X obj 1639 924 -;
#X obj 282 431 reverbonoffnousarmas7;
#X obj 1537 761 socket7;
#X obj 432 16 netreceive 3006 1;
#X obj 1270 414 netreceive 3005 1;
#X obj 1528 730 netreceive 3004 1;
#X obj 1055 22 netreceive 3005 1;
#X obj 1332 37 netreceive 3003 1;
#X obj 698 26 netreceive 3001 1;
#X obj 689 518 cnv 15 100 60 empty empty empty 20 12 0 14 -233017 -66577
0;
#X text 102 65 1 osc con wawa;
#X text 110 277 Test 1;
#X text 304 286 Test 2;
#X text 113 624 test ride;
#X text 689 287 test granular, f 8;
#X text 698 616 test tape echo;
#X text 487 615 test Dige;
#X text 369 583;
#X text 340 384 HORN;
#X text 304 617 test HORN;
#X obj 625 428 vsl 15 128 0 1 0 0 empty empty empty 0 -9 0 10 -262144
-1 -1 9100 1;
#X obj 646 430 vu 15 120 empty empty -1 -8 0 10 -66577 -1 1 0;
#X obj 678 416 reverbonoffnousarmas5;
#X text 571 192 test oH;
#X connect 1 0 30 0;
#X connect 1 0 31 0;
#X connect 2 0 1 1;
#X connect 3 0 71 0;
#X connect 3 1 71 1;
#X connect 4 0 84 0;
#X connect 4 1 84 1;
#X connect 5 0 38 0;
#X connect 5 0 39 0;
#X connect 6 0 5 1;
#X connect 7 0 46 0;
#X connect 7 0 47 0;
#X connect 8 0 7 1;
#X connect 9 0 7 0;
#X connect 9 1 7 0;
#X connect 12 0 54 0;
#X connect 12 0 55 0;
#X connect 13 0 12 1;
#X connect 13 0 16 0;
#X connect 14 0 85 0;
#X connect 14 1 85 1;
#X connect 15 0 3 0;
#X connect 17 0 18 0;
#X connect 19 0 18 1;
#X connect 20 0 18 2;
#X connect 21 0 18 3;
#X connect 22 0 18 4;
#X connect 23 0 18 5;
#X connect 24 0 18 6;
#X connect 25 0 18 7;
#X connect 27 0 28 0;
#X connect 27 0 32 0;
#X connect 27 0 34 1;
#X connect 28 0 30 1;
#X connect 29 0 31 1;
#X connect 30 0 0 0;
#X connect 31 0 0 1;
#X connect 32 1 33 0;
#X connect 33 0 34 0;
#X connect 34 0 29 0;
#X connect 35 0 36 0;
#X connect 35 0 40 0;
#X connect 35 0 42 1;
#X connect 36 0 38 1;
#X connect 37 0 39 1;
#X connect 38 0 0 0;
#X connect 39 0 0 1;
#X connect 40 1 41 0;
#X connect 41 0 42 0;
#X connect 42 0 37 0;
#X connect 43 0 44 0;
#X connect 43 0 48 0;
#X connect 43 0 50 1;
#X connect 44 0 46 1;
#X connect 45 0 47 1;
#X connect 46 0 0 0;
#X connect 47 0 0 1;
#X connect 48 1 49 0;
#X connect 49 0 50 0;
#X connect 50 0 45 0;
#X connect 51 0 52 0;
#X connect 51 0 56 0;
#X connect 51 0 58 1;
#X connect 52 0 54 1;
#X connect 53 0 55 1;
#X connect 54 0 0 0;
#X connect 55 0 0 1;
#X connect 56 1 57 0;
#X connect 57 0 58 0;
#X connect 58 0 53 0;
#X connect 60 0 64 0;
#X connect 60 0 65 0;
#X connect 61 0 62 0;
#X connect 61 0 66 0;
#X connect 61 0 68 1;
#X connect 62 0 64 1;
#X connect 63 0 65 1;
#X connect 64 0 0 0;
#X connect 65 0 0 1;
#X connect 66 1 67 0;
#X connect 67 0 68 0;
#X connect 68 0 63 0;
#X connect 69 0 132 0;
#X connect 69 1 132 1;
#X connect 71 0 1 0;
#X connect 71 1 1 0;
#X connect 72 0 73 0;
#X connect 72 1 73 0;
#X connect 73 0 78 0;
#X connect 73 0 79 0;
#X connect 74 0 73 1;
#X connect 75 0 76 0;
#X connect 75 0 80 0;
#X connect 75 0 82 1;
#X connect 76 0 78 1;
#X connect 77 0 79 1;
#X connect 78 0 0 0;
#X connect 79 0 0 1;
#X connect 80 1 81 0;
#X connect 81 0 82 0;
#X connect 82 0 77 0;
#X connect 83 0 72 0;
#X connect 83 1 72 1;
#X connect 84 0 5 0;
#X connect 84 1 5 0;
#X connect 85 0 12 0;
#X connect 85 1 12 0;
#X connect 86 0 87 0;
#X connect 86 1 87 1;
#X connect 87 0 92 0;
#X connect 87 0 93 0;
#X connect 88 0 87 1;
#X connect 89 0 90 0;
#X connect 89 0 94 0;
#X connect 89 0 96 1;
#X connect 90 0 92 1;
#X connect 91 0 93 1;
#X connect 92 0 0 0;
#X connect 93 0 0 1;
#X connect 94 1 95 0;
#X connect 95 0 96 0;
#X connect 96 0 91 0;
#X connect 97 0 99 0;
#X connect 99 0 86 0;
#X connect 99 1 86 1;
#X connect 101 0 106 0;
#X connect 101 0 107 0;
#X connect 102 0 101 1;
#X connect 103 0 104 0;
#X connect 103 0 108 0;
#X connect 103 0 110 1;
#X connect 104 0 106 1;
#X connect 105 0 107 1;
#X connect 106 0 0 0;
#X connect 107 0 0 1;
#X connect 108 1 109 0;
#X connect 109 0 110 0;
#X connect 110 0 105 0;
#X connect 111 0 101 0;
#X connect 111 1 101 1;
#X connect 112 0 111 0;
#X connect 112 1 111 1;
#X connect 113 0 4 0;
#X connect 114 0 83 0;
#X connect 115 0 112 0;
#X connect 116 0 14 0;
#X connect 117 0 69 0;
#X connect 118 0 9 0;
#X connect 130 0 60 1;
#X connect 130 0 131 0;
#X connect 132 0 60 0;
#X connect 132 1 60 0;
#X coords 0 -1 1 1 800 600 1 50 50;
