#N canvas 0 28 1366 660 10;
#X obj 1862 988 output~;
#X obj 3 32 inst_osc_dinamic 1;
#X obj -7 257 mini_mixer 1;
#X obj 3 6 netreceive 3001 1;
#X obj 234 36 inst_osc_dinamic 2;
#X obj 233 264 mini_mixer 2;
#X obj 457 5 netreceive 3003 1;
#X obj 453 30 inst_osc_dinamic 3;
#X obj 452 262 mini_mixer 3;
#X obj 678 34 inst_osc_dinamic 4;
#X obj 676 264 mini_mixer 4;
#X obj 911 39 inst_osc_dinamic 5;
#X obj 911 6 netreceive 3005 1;
#X obj 907 273 mini_mixer 5;
#X obj 1132 43 inst_osc_dinamic 6;
#X obj 1136 271 mini_mixer 6;
#X obj 1356 37 inst_osc_dinamic 7;
#X obj 1381 5 netreceive 3007 1;
#X obj 1365 269 mini_mixer 7;
#X obj 1592 7 netreceive 3008 1;
#X obj 1593 33 inst_osc_dinamic 8;
#X obj 1598 260 mini_mixer 8;
#X obj -9 564 inst_granular_dinamic1;
#X obj -15 797 mini_mixer 9;
#X obj -10 540 netreceive 3002 1;
#X obj 238 13 netreceive 3009 1;
#X obj 227 561 inst_granular_dinamic2;
#X obj 679 6 netreceive 3009 1;
#X obj 230 539 netreceive 3004 1;
#X obj 219 790 mini_mixer 10;
#X obj 449 563 inst_granular_dinamic3 1;
#X obj 1133 17 netreceive 30010 1;
#X obj 457 540 netreceive 3006 1;
#X obj 449 787 mini_mixer 11;
#X obj 687 563 inst_granular_dinamic3 2;
#X obj 686 543 netreceive 30011 1;
#X obj 684 796 mini_mixer 12;
#X obj 911 565 inst_granular_dinamic3 3;
#X obj 922 543 netreceive 30012 1;
#X obj 906 793 mini_mixer 13;
#X obj 1153 564 inst_granular_dinamic3 4;
#X obj 1150 793 mini_mixer 14;
#X obj 1153 535 netreceive 30013 1;
#X obj 1611 507 s~ left;
#X obj 1768 506 s~ right;
#X obj 1384 513 s~ left;
#X obj 1533 515 s~ right;
#X obj 1138 505 s~ left;
#X obj 1312 509 s~ right;
#X obj 910 509 s~ left;
#X obj 1075 520 s~ right;
#X obj 685 499 s~ left;
#X obj 848 505 s~ right;
#X obj 467 499 s~ left;
#X obj 617 503 s~ right;
#X obj 240 501 s~ left;
#X obj 401 502 s~ right;
#X obj -4 502 s~ left;
#X obj 165 502 s~ right;
#X obj -16 1047 s~ left;
#X obj 148 1042 s~ right;
#X obj 226 1025 s~ left;
#X obj 394 1026 s~ right;
#X obj 455 1030 s~ left;
#X obj 608 1031 s~ right;
#X obj 687 1047 s~ left;
#X obj 844 1046 s~ right;
#X obj 931 1044 s~ left;
#X obj 1088 1043 s~ right;
#X obj 1807 942 r~ left;
#X obj 1897 942 r~ right;
#X connect 1 0 2 0;
#X connect 1 1 2 1;
#X connect 2 0 57 0;
#X connect 2 1 58 0;
#X connect 3 0 1 0;
#X connect 4 0 5 0;
#X connect 4 1 5 1;
#X connect 5 0 55 0;
#X connect 5 1 56 0;
#X connect 6 0 7 0;
#X connect 7 0 8 0;
#X connect 7 1 8 1;
#X connect 8 0 53 0;
#X connect 8 1 54 0;
#X connect 9 0 10 0;
#X connect 9 1 10 1;
#X connect 10 0 51 0;
#X connect 10 1 52 0;
#X connect 11 0 13 0;
#X connect 11 1 13 1;
#X connect 12 0 11 0;
#X connect 13 0 49 0;
#X connect 13 1 50 0;
#X connect 14 0 15 0;
#X connect 14 1 15 1;
#X connect 15 0 47 0;
#X connect 15 1 48 0;
#X connect 16 0 18 0;
#X connect 16 1 18 1;
#X connect 17 0 16 0;
#X connect 18 0 45 0;
#X connect 18 1 46 0;
#X connect 19 0 20 0;
#X connect 20 0 21 0;
#X connect 20 1 21 1;
#X connect 21 0 43 0;
#X connect 21 1 44 0;
#X connect 22 0 23 0;
#X connect 22 1 23 1;
#X connect 23 0 59 0;
#X connect 23 1 60 0;
#X connect 24 0 22 0;
#X connect 25 0 4 0;
#X connect 26 0 29 0;
#X connect 26 1 29 1;
#X connect 27 0 9 0;
#X connect 28 0 26 0;
#X connect 29 0 61 0;
#X connect 29 1 62 0;
#X connect 30 0 33 0;
#X connect 30 1 33 1;
#X connect 31 0 14 0;
#X connect 32 0 30 0;
#X connect 33 0 63 0;
#X connect 33 1 64 0;
#X connect 34 0 36 0;
#X connect 34 1 36 1;
#X connect 35 0 34 0;
#X connect 36 0 65 0;
#X connect 36 1 66 0;
#X connect 37 0 39 0;
#X connect 37 1 39 1;
#X connect 38 0 37 0;
#X connect 39 0 67 0;
#X connect 39 1 68 0;
#X connect 40 0 41 0;
#X connect 40 1 41 1;
#X connect 42 0 40 0;
#X connect 69 0 0 0;
#X connect 70 0 0 1;
