#N canvas 0 28 1366 660 10;
#X obj 468 27 inst3001;
#X obj 43 263 tgl 15 0 empty empty empty 17 7 0 10 -262144 -1 -1 1
1;
#X obj 15 419 test;
#X obj 56 372 tgl 15 0 empty empty empty 17 7 0 10 -262144 -1 -1 0
1;
#X obj 84 377 tgl 15 0 empty empty empty 17 7 0 10 -262144 -1 -1 0
1;
#X obj 148 370 tgl 15 0 empty empty empty 17 7 0 10 -262144 -1 -1 0
1;
#X obj 181 368 tgl 15 0 empty empty empty 17 7 0 10 -262144 -1 -1 0
1;
#X obj 264 375 tgl 11 0 empty empty empty 17 7 0 10 -262144 -1 -1 0
1;
#X text 11 350 1;
#X text 53 343 4;
#X text 84 349 7;
#X text 152 346 5;
#X text 180 340 8;
#X text 214 339 3;
#X text 268 347 6;
#X obj 38 200 netreceive 3001 1;
#X obj 93 229 s ins1;
#X obj 45 228 route;
#X text 69 263 test ins;
#X obj 216 455 tgl 15 0 empty empty empty 17 7 0 10 -262144 -1 -1 0
1;
#X obj 177 413 tgl 19 0 empty empty empty 17 7 0 10 -262144 -1 -1 0
1;
#X obj 398 585 output~;
#X obj 462 256 mini_mixer;
#X connect 0 0 22 0;
#X connect 0 1 22 1;
#X connect 1 0 2 0;
#X connect 3 0 2 1;
#X connect 4 0 2 2;
#X connect 5 0 2 4;
#X connect 6 0 2 5;
#X connect 7 0 2 7;
#X connect 15 0 17 0;
#X connect 17 0 16 0;
#X connect 19 0 2 3;
#X connect 20 0 2 6;
#X connect 22 0 21 0;
#X connect 22 1 21 1;
