#N canvas 495 101 467 410 10;
#X obj 36 150 ctlin;
#X obj 36 246 spigot;
#X obj 49 179 sel 14;
#X msg 62 208 1;
#X msg 100 213 0;
#X obj 36 271 / 127;
#X obj 136 150 ctlin;
#X obj 136 246 spigot;
#X msg 162 208 1;
#X msg 200 213 0;
#X obj 136 271 / 127;
#X obj 149 179 sel 2;
#X obj 236 150 ctlin;
#X obj 236 246 spigot;
#X msg 262 208 1;
#X msg 300 213 0;
#X obj 236 271 / 127;
#X obj 249 179 sel 23;
#X obj 336 150 ctlin;
#X obj 336 246 spigot;
#X msg 362 208 1;
#X msg 400 213 0;
#X obj 336 271 / 127;
#X obj 349 179 sel 33;
#X obj 36 316 outlet;
#X obj 136 316 outlet;
#X obj 236 316 outlet;
#X obj 336 316 outlet;
#X text 31 349 knob \, slider \, toggle \, trigger;
#X obj 158 28 f \$1;
#X obj 158 5 loadbang;
#N canvas 27 244 450 300 lookup 0;
#X obj 137 37 sel 1 2 3 4 5 6 7 8 9;
#X obj 136 10 inlet;
#X msg 277 78 14 2 23 33;
#X msg 277 98 15 3 24 34;
#X msg 278 117 16 4 25 35;
#X msg 278 137 17 5 26 36;
#X msg 278 157 18 6 27 37;
#X msg 278 177 19 8 28 38;
#X msg 278 197 20 9 29 39;
#X msg 278 217 21 12 30 40;
#X msg 278 236 22 13 31 41;
#X obj 131 268 outlet;
#X connect 0 0 2 0;
#X connect 0 1 3 0;
#X connect 0 2 4 0;
#X connect 0 3 5 0;
#X connect 0 4 6 0;
#X connect 0 5 7 0;
#X connect 0 6 8 0;
#X connect 0 7 9 0;
#X connect 0 8 10 0;
#X connect 1 0 0 0;
#X connect 2 0 11 0;
#X connect 3 0 11 0;
#X connect 4 0 11 0;
#X connect 5 0 11 0;
#X connect 6 0 11 0;
#X connect 7 0 11 0;
#X connect 8 0 11 0;
#X connect 9 0 11 0;
#X connect 10 0 11 0;
#X restore 156 60 pd lookup;
#X obj 142 98 unpack f f f f;
#X connect 0 0 1 0;
#X connect 0 1 2 0;
#X connect 1 0 5 0;
#X connect 2 0 3 0;
#X connect 2 1 4 0;
#X connect 3 0 1 1;
#X connect 4 0 1 1;
#X connect 5 0 24 0;
#X connect 6 0 7 0;
#X connect 6 1 11 0;
#X connect 7 0 10 0;
#X connect 8 0 7 1;
#X connect 9 0 7 1;
#X connect 10 0 25 0;
#X connect 11 0 8 0;
#X connect 11 1 9 0;
#X connect 12 0 13 0;
#X connect 12 1 17 0;
#X connect 13 0 16 0;
#X connect 14 0 13 1;
#X connect 15 0 13 1;
#X connect 16 0 26 0;
#X connect 17 0 14 0;
#X connect 17 1 15 0;
#X connect 18 0 19 0;
#X connect 18 1 23 0;
#X connect 19 0 22 0;
#X connect 20 0 19 1;
#X connect 21 0 19 1;
#X connect 22 0 27 0;
#X connect 23 0 20 0;
#X connect 23 1 21 0;
#X connect 29 0 31 0;
#X connect 30 0 29 0;
#X connect 31 0 32 0;
#X connect 32 0 2 1;
#X connect 32 1 11 1;
#X connect 32 2 17 1;
#X connect 32 3 23 1;
