#N canvas 214 51 1151 682 12;
#X obj 20 20 cnv 15 103 152 empty empty empty 20 12 0 14 -4032 -66577
0;
#X obj 386 219 +~;
#X obj 428 219 +~;
#X obj 261 642 outlet~;
#X obj 385 291 +~;
#X obj 494 292 +~;
#X obj 427 291 -~;
#X obj 534 291 -~;
#X obj 384 347 +~;
#X obj 428 348 +~;
#X obj 472 349 -~;
#X obj 511 349 -~;
#X obj 471 401 *~ 0;
#X obj 429 400 *~ 0;
#X obj 384 399 *~ 0;
#X obj 512 402 *~ 0;
#X obj 442 157 delread~ \$0-loop-del1 60;
#X obj 484 182 delread~ \$0-loop-del2 71.9345;
#X obj 495 212 delread~ \$0-loop-del3 86.7545;
#X obj 517 237 delread~ \$0-loop-del4 95.945;
#X obj 511 430 delwrite~ \$0-loop-del4 95.945;
#X obj 472 453 delwrite~ \$0-loop-del3 86.7545;
#X obj 430 476 delwrite~ \$0-loop-del2 71.9345;
#X obj 385 498 delwrite~ \$0-loop-del1 60;
#X obj 54 110 hsl 40 10 0 1 0 0 \$0-fromlength \$0-tolength length
-2 -5 1 8 -258113 -1 -1 0 1;
#X obj 567 347 * 0.5;
#X obj 567 319 r \$0-fromlength;
#X obj 310 586 *~;
#X obj 277 607 +~;
#X obj 390 551 r \$0-frommix;
#X obj 171 2 inlet~;
#X obj 327 8 inlet~;
#X obj 140 58 +~;
#X obj 202 54 -~;
#X obj 120 144 +~;
#X obj 156 144 -~;
#X obj 121 222 +~;
#X obj 157 222 -~;
#X obj 120 304 +~;
#X obj 156 304 -~;
#X obj 157 84 delwrite~ \$0-d1 5.43216;
#X obj 157 109 delread~ \$0-d1 5.43216;
#X obj 157 168 delwrite~ \$0-d2 8.45346;
#X obj 156 194 delread~ \$0-d2 8.45346;
#X obj 158 246 delwrite~ \$0-d3 13.4367;
#X obj 157 272 delread~ \$0-d3 13.4367;
#X obj 157 328 delwrite~ \$0-d4 21.5463;
#X obj 156 354 delread~ \$0-d4 21.5463;
#X obj 121 385 +~;
#X obj 157 385 -~;
#X obj 121 464 +~;
#X obj 157 464 -~;
#X obj 158 409 delwrite~ \$0-d5 34.3876;
#X obj 157 435 delread~ \$0-d5 34.3876;
#X obj 158 488 delwrite~ \$0-d6 55.5437;
#X obj 156 514 delread~ \$0-d6 55.5437;
#X obj 325 643 outlet~;
#X obj 354 587 *~;
#X obj 333 613 +~;
#X obj 54 147 hsl 40 12 0 1 0 0 \$0-frommix \$0-tomix mix -2 -5 1 8
-258113 -1 -1 0 1;
#X text 28 33 Reverb Simple;
#X obj 64 73 bng 15 250 50 0 empty empty empty 17 7 0 10 -262144 -1
-1;
#X text 44 53 On / Off;
#X obj 520 44 tgl 15 0 empty empty empty 17 7 0 10 -262144 -1 -1 1
1;
#X obj 580 46 sel 1;
#X obj 580 92 bng 15 250 50 0 empty empty empty 17 7 0 10 -262144 -1
-1;
#X obj 628 92 bng 15 250 50 0 empty empty empty 17 7 0 10 -262144 -1
-1;
#X msg 722 101 1;
#X msg 793 90 2;
#X obj 783 180 gate 2;
#X obj 847 321 unpack~;
#X obj 854 138 pack~;
#X obj 844 405 unpack~;
#X obj 935 95 loadbang;
#X connect 1 0 4 0;
#X connect 1 0 6 0;
#X connect 1 0 27 0;
#X connect 2 0 4 1;
#X connect 2 0 6 1;
#X connect 2 0 57 0;
#X connect 4 0 8 0;
#X connect 4 0 10 0;
#X connect 5 0 10 1;
#X connect 5 0 8 1;
#X connect 6 0 9 0;
#X connect 6 0 11 0;
#X connect 7 0 9 1;
#X connect 7 0 11 1;
#X connect 8 0 14 0;
#X connect 9 0 13 0;
#X connect 10 0 12 0;
#X connect 11 0 15 0;
#X connect 12 0 21 0;
#X connect 13 0 22 0;
#X connect 14 0 23 0;
#X connect 15 0 20 0;
#X connect 16 0 1 1;
#X connect 17 0 2 1;
#X connect 18 0 5 0;
#X connect 18 0 7 0;
#X connect 19 0 5 1;
#X connect 19 0 7 1;
#X connect 25 0 14 1;
#X connect 25 0 13 1;
#X connect 25 0 12 1;
#X connect 25 0 15 1;
#X connect 26 0 25 0;
#X connect 27 0 28 1;
#X connect 28 0 3 0;
#X connect 29 0 27 1;
#X connect 29 0 57 1;
#X connect 30 0 71 0;
#X connect 31 0 71 0;
#X connect 32 0 34 0;
#X connect 32 0 35 0;
#X connect 33 0 40 0;
#X connect 34 0 36 0;
#X connect 34 0 37 0;
#X connect 35 0 42 0;
#X connect 36 0 38 0;
#X connect 36 0 39 0;
#X connect 37 0 44 0;
#X connect 38 0 48 0;
#X connect 38 0 49 0;
#X connect 39 0 46 0;
#X connect 41 0 34 1;
#X connect 41 0 35 1;
#X connect 43 0 36 1;
#X connect 43 0 37 1;
#X connect 45 0 38 1;
#X connect 45 0 39 1;
#X connect 47 0 48 1;
#X connect 47 0 49 1;
#X connect 48 0 50 0;
#X connect 48 0 51 0;
#X connect 49 0 52 0;
#X connect 50 0 1 0;
#X connect 51 0 54 0;
#X connect 53 0 50 1;
#X connect 53 0 51 1;
#X connect 55 0 2 0;
#X connect 57 0 58 1;
#X connect 58 0 56 0;
#X connect 61 0 63 0;
#X connect 63 0 64 0;
#X connect 64 0 65 0;
#X connect 64 1 66 0;
#X connect 65 0 67 0;
#X connect 66 0 68 0;
#X connect 67 0 69 0;
#X connect 68 0 69 0;
#X connect 69 0 70 0;
#X connect 69 1 72 0;
#X connect 70 0 33 1;
#X connect 70 0 32 0;
#X connect 70 0 33 0;
#X connect 70 0 32 1;
#X connect 70 0 58 0;
#X connect 70 0 28 0;
#X connect 71 0 69 1;
#X connect 72 0 56 0;
#X connect 72 0 3 0;
#X connect 73 0 68 0;
#X coords 0 -1 1 1 103 152 1 20 20;
