#N canvas 96 98 1221 647 10;
#X floatatom 231 287 5 0 0 0 - - -, f 5;
#X floatatom 89 313 5 0 0 0 - - -, f 5;
#X obj 197 35 inlet;
#X obj 467 483 outlet~;
#X obj 549 483 outlet~;
#X floatatom 298 266 5 0 0 0 - - -, f 5;
#X obj 204 188 unpack 0 0 0 0 0;
#X obj 294 130 route;
#X obj 735 461 line~;
#X msg 772 376 1 1000;
#X obj 598 390 *~;
#X obj 506 392 *~;
#X obj 605 437 *~ 0.1;
#X obj 490 439 *~ 0.1;
#X msg 790 406 0 1000;
#X obj 83 377 sel 0;
#X obj 762 311 loadbang;
#X obj 711 146 bng 25 250 50 0 empty empty play 30 10 0 8 -258699 -241291
-1;
#X obj 762 558 bng 25 250 50 0 empty empty load 30 10 0 8 -258699 -241291
-1;
#X floatatom 548 183 5 0 0 0 - - -, f 5;
#X text 543 165 length;
#X floatatom 508 309 5 0 0 0 - - -, f 5;
#X text 476 241 volume;
#X floatatom 596 183 5 0 0 0 - - -, f 5;
#X floatatom 645 183 5 0 0 0 - - -, f 5;
#X text 645 163 pitch;
#X text 597 164 start;
#X obj 729 255 s lastload;
#X msg 586 135 1;
#X msg 548 135 440;
#X msg 623 135 100;
#X obj 558 73 loadbang;
#X text 809 564 load another wav;
#X msg 484 267 2;
#X obj 941 133 bng 15 250 50 0 empty empty empty 17 7 0 10 -262144
-1 -1;
#X obj 622 227 sampleplayer 1;
#X floatatom 291 336 5 0 0 0 - - -, f 5;
#X floatatom 370 321 5 0 0 0 - - -, f 5;
#X floatatom 258 604 5 0 0 0 - - -, f 5;
#X obj 270 522 + 10;
#X obj 296 573 * 10;
#X floatatom 114 585 5 0 0 0 - - -, f 5;
#X floatatom 133 429 5 0 0 0 - - -, f 5;
#X msg 419 526 bang;
#X obj 445 576 int;
#X obj 488 580 + 1;
#X floatatom 447 613 5 0 0 0 - - -, f 5;
#X obj 697 94 delay 5;
#X obj 403 99 + 10;
#X obj 399 156 * 10;
#X floatatom 396 201 5 0 0 0 - - -, f 5;
#X obj 156 522 moses 50;
#X msg 736 201 drum-machine/samples/COWBELL.WAV;
#X obj 76 117 r ins3;
#X connect 1 0 15 0;
#X connect 2 0 7 0;
#X connect 5 0 48 0;
#X connect 6 0 1 0;
#X connect 6 1 0 0;
#X connect 6 2 36 0;
#X connect 6 3 5 0;
#X connect 6 4 37 0;
#X connect 7 0 6 0;
#X connect 8 0 10 1;
#X connect 8 0 11 1;
#X connect 9 0 8 0;
#X connect 10 0 12 0;
#X connect 11 0 13 0;
#X connect 12 0 4 0;
#X connect 13 0 3 0;
#X connect 14 0 8 0;
#X connect 15 1 9 0;
#X connect 16 0 9 0;
#X connect 16 0 33 0;
#X connect 16 0 34 0;
#X connect 17 0 35 4;
#X connect 18 0 35 5;
#X connect 19 0 35 1;
#X connect 21 0 35 0;
#X connect 23 0 35 2;
#X connect 24 0 35 3;
#X connect 28 0 23 0;
#X connect 29 0 19 0;
#X connect 30 0 24 0;
#X connect 31 0 28 0;
#X connect 31 0 29 0;
#X connect 31 0 30 0;
#X connect 33 0 21 0;
#X connect 34 0 52 0;
#X connect 35 0 11 0;
#X connect 35 0 10 0;
#X connect 35 1 27 0;
#X connect 36 0 39 0;
#X connect 38 0 51 0;
#X connect 39 0 40 0;
#X connect 40 0 38 0;
#X connect 42 0 43 0;
#X connect 42 0 47 0;
#X connect 43 0 44 0;
#X connect 44 0 46 0;
#X connect 44 0 45 0;
#X connect 45 0 44 1;
#X connect 47 0 17 0;
#X connect 48 0 49 0;
#X connect 49 0 50 0;
#X connect 51 0 41 0;
#X connect 51 1 42 0;
#X connect 52 0 35 6;
#X connect 53 0 6 0;
