#N canvas 145 98 1221 647 10;
#X floatatom 231 287 5 0 0 0 - - -, f 5;
#X floatatom 89 313 5 0 0 0 - - -, f 5;
#X obj 197 35 inlet;
#X obj 437 562 outlet~;
#X obj 519 562 outlet~;
#X floatatom 788 -12 5 0 0 0 - - -, f 5;
#X obj 204 188 unpack 0 0 0 0 0;
#X obj 294 130 route;
#X obj 735 461 line~;
#X msg 772 376 1 1000;
#X obj 568 469 *~;
#X obj 476 471 *~;
#X obj 575 516 *~ 0.1;
#X obj 460 518 *~ 0.1;
#X msg 790 406 0 1000;
#X obj 83 377 sel 0;
#X obj 626 7 hip~ 400;
#X obj 516 163 hip~ 400;
#X obj 449 5 delwrite~ delay 1000;
#X obj 652 149 noise~;
#X obj 653 185 *~ 0.001;
#X obj 452 126 delread~ delay 250;
#X obj 520 69 *~ 0.8;
#X obj 671 90 hsl 128 15 0 1000 0 0 empty empty empty -2 -8 0 10 -262144
-1 -1 6236 1;
#X obj 688 48 hsl 128 15 0 0.9 0 0 empty empty empty -2 -8 0 10 -262144
-1 -1 5461 1;
#X floatatom 668 116 5 0 0 0 - - -, f 5;
#X floatatom 685 68 5 0 0 0 - - -, f 5;
#X obj 848 48 * 0.001;
#X obj 378 -7 phasor~;
#X floatatom 885 150 5 0 0 0 - - -, f 5;
#X obj 75 117 r ins5;
#X connect 0 0 28 0;
#X connect 1 0 15 0;
#X connect 2 0 7 0;
#X connect 5 0 27 0;
#X connect 6 0 1 0;
#X connect 6 1 0 0;
#X connect 6 2 29 0;
#X connect 6 3 5 0;
#X connect 7 0 6 0;
#X connect 8 0 10 1;
#X connect 8 0 11 1;
#X connect 9 0 8 0;
#X connect 10 0 12 0;
#X connect 11 0 13 0;
#X connect 12 0 4 0;
#X connect 13 0 3 0;
#X connect 14 0 8 0;
#X connect 15 0 14 0;
#X connect 15 1 9 0;
#X connect 16 0 11 0;
#X connect 16 0 10 0;
#X connect 17 0 11 0;
#X connect 17 0 10 0;
#X connect 19 0 20 0;
#X connect 20 0 18 0;
#X connect 21 0 17 0;
#X connect 21 0 22 0;
#X connect 22 0 18 0;
#X connect 23 0 21 0;
#X connect 23 0 25 0;
#X connect 24 0 22 1;
#X connect 24 0 26 0;
#X connect 27 0 24 0;
#X connect 28 0 16 0;
#X connect 28 0 18 0;
#X connect 29 0 23 0;
#X connect 30 0 6 0;
