#N canvas 1695 126 1221 647 10;
#X floatatom 231 287 5 0 0 0 - - -, f 5;
#X floatatom 89 313 5 0 0 0 - - -, f 5;
#X obj 197 35 inlet;
#X obj 437 562 outlet~;
#X obj 519 562 outlet~;
#X floatatom 286 282 5 0 0 0 - - -, f 5;
#X obj 204 188 unpack 0 0 0 0 0;
#X obj 294 130 route;
#X obj 236 345 * -2;
#X obj 735 461 line~;
#X obj 568 469 *~;
#X obj 476 471 *~;
#X obj 575 516 *~ 0.1;
#X obj 460 518 *~ 0.1;
#X obj 508 383 vcf~;
#X floatatom 593 356 5 0 0 0 - - -, f 5;
#X obj 599 214 vsl 15 128 0 20 0 0 empty empty empty 0 -9 0 10 -262144
-1 -1 12700 1;
#X obj 574 25 +~ 1;
#X obj 575 46 *~ 0.5;
#X obj 574 4 osc~ 2;
#X obj 888 123 hsl 128 15 700 6000 0 0 empty empty empty -2 -8 0 10
-262144 -1 -1 12700 1;
#X obj 635 163 hsl 128 15 0 700 0 0 empty empty empty -2 -8 0 10 -262144
-1 -1 12700 1;
#X floatatom 629 195 6 0 0 0 - - -, f 6;
#X floatatom 628 115 6 0 0 0 - - -, f 6;
#X obj 628 96 -;
#X obj 751 54 bang;
#X obj 528 180 +~ 200;
#X obj 527 98 *~ 1500;
#X obj 579 -25 hsl 128 15 0.5 4 0 0 empty empty empty -2 -8 0 10 -262144
-1 -1 12700 1;
#X obj 671 205 loadbang;
#X msg 669 230 5.3;
#X floatatom 667 -1 5 0 0 0 - - -, f 5;
#X obj 510 42 *~ 5;
#X obj 289 445 phasor~;
#X obj 83 377 sel 0;
#X obj 177 504 phasor~;
#X obj 760 261 loadbang;
#X obj 298 336 / -0.5;
#X obj 779 321 bng 15 250 50 0 empty empty empty 17 7 0 10 -262144
-1 -1;
#X obj 839 68 * 10;
#X obj 747 3 * 10;
#X obj 419 291 / 10;
#X obj 976 206 * 100;
#X floatatom 987 269 5 0 0 0 - - -, f 5;
#X obj 1047 226 + 2;
#X obj 713 310 bng 15 250 50 0 empty empty empty 17 7 0 10 -262144
-1 -1;
#X msg 733 366 1 100;
#X msg 790 406 0 250;
#X obj 46 92 r ins2;
#X connect 0 0 8 0;
#X connect 1 0 34 0;
#X connect 2 0 7 0;
#X connect 5 0 41 0;
#X connect 6 0 1 0;
#X connect 6 1 0 0;
#X connect 6 2 40 0;
#X connect 6 3 5 0;
#X connect 6 4 39 0;
#X connect 6 4 43 0;
#X connect 7 0 6 0;
#X connect 8 0 33 0;
#X connect 9 0 10 1;
#X connect 9 0 11 1;
#X connect 10 0 12 0;
#X connect 11 0 13 0;
#X connect 12 0 4 0;
#X connect 13 0 3 0;
#X connect 14 0 11 0;
#X connect 14 0 10 0;
#X connect 16 0 15 0;
#X connect 16 0 14 2;
#X connect 17 0 18 0;
#X connect 18 0 27 0;
#X connect 19 0 17 0;
#X connect 20 0 24 0;
#X connect 21 0 22 0;
#X connect 21 0 24 1;
#X connect 21 0 25 0;
#X connect 21 0 26 1;
#X connect 24 0 23 0;
#X connect 24 0 27 1;
#X connect 25 0 24 0;
#X connect 26 0 14 1;
#X connect 27 0 26 0;
#X connect 28 0 19 0;
#X connect 28 0 31 0;
#X connect 29 0 30 0;
#X connect 30 0 16 0;
#X connect 32 0 14 0;
#X connect 33 0 32 0;
#X connect 34 0 47 0;
#X connect 34 1 37 0;
#X connect 34 1 46 0;
#X connect 34 1 45 0;
#X connect 35 0 32 0;
#X connect 36 0 38 0;
#X connect 37 0 35 0;
#X connect 38 0 46 0;
#X connect 39 0 21 0;
#X connect 40 0 28 0;
#X connect 41 0 16 0;
#X connect 42 0 20 0;
#X connect 43 0 44 0;
#X connect 44 0 42 0;
#X connect 46 0 9 0;
#X connect 47 0 9 0;
#X connect 48 0 6 0;
