#N canvas 1508 106 1652 876 10;
#X obj 180 188 s ins1;
#X floatatom 25 133 5 0 0 0 - - -, f 5;
#X floatatom 123 135 5 0 0 0 - - -, f 5;
#X obj 218 109 random 1024;
#X floatatom 220 134 5 0 0 0 - - -, f 5;
#X obj 311 102 random 1024;
#X floatatom 314 136 5 0 0 0 - - -, f 5;
#X obj 408 104 random 1024;
#X floatatom 416 132 5 0 0 0 - - -, f 5;
#X obj 158 165 pack 0 0 0 0 0;
#X obj 28 19 inlet;
#X obj 35 48 tgl 15 0 empty empty empty 17 7 0 10 -262144 -1 -1 0 1
;
#X obj 529 105 random 1024;
#X floatatom 528 126 5 0 0 0 - - -, f 5;
#X obj 620 103 random 1024;
#X floatatom 626 128 5 0 0 0 - - -, f 5;
#X obj 721 102 random 1024;
#X floatatom 723 127 5 0 0 0 - - -, f 5;
#X obj 814 95 random 1024;
#X floatatom 817 129 5 0 0 0 - - -, f 5;
#X obj 911 97 random 1024;
#X floatatom 919 125 5 0 0 0 - - -, f 5;
#X obj 661 158 pack 0 0 0 0 0;
#X obj 538 41 tgl 15 0 empty empty empty 17 7 0 10 -262144 -1 -1 0
1;
#X obj 683 181 s ins2;
#X obj 42 333 random 1024;
#X floatatom 41 354 5 0 0 0 - - -, f 5;
#X obj 133 331 random 1024;
#X floatatom 139 356 5 0 0 0 - - -, f 5;
#X obj 234 330 random 1024;
#X floatatom 236 355 5 0 0 0 - - -, f 5;
#X obj 327 323 random 1024;
#X floatatom 330 357 5 0 0 0 - - -, f 5;
#X obj 424 325 random 1024;
#X floatatom 432 353 5 0 0 0 - - -, f 5;
#X obj 174 386 pack 0 0 0 0 0;
#X obj 44 240 inlet;
#X obj 51 269 tgl 15 0 empty empty empty 17 7 0 10 -262144 -1 -1 0
1;
#X obj 573 318 random 1024;
#X floatatom 572 339 5 0 0 0 - - -, f 5;
#X obj 664 316 random 1024;
#X floatatom 670 341 5 0 0 0 - - -, f 5;
#X obj 765 315 random 1024;
#X floatatom 767 340 5 0 0 0 - - -, f 5;
#X obj 858 308 random 1024;
#X floatatom 861 342 5 0 0 0 - - -, f 5;
#X obj 955 310 random 1024;
#X floatatom 963 338 5 0 0 0 - - -, f 5;
#X obj 705 371 pack 0 0 0 0 0;
#X obj 575 225 inlet;
#X obj 582 254 tgl 15 0 empty empty empty 17 7 0 10 -262144 -1 -1 0
1;
#X obj 87 577 random 1024;
#X floatatom 86 598 5 0 0 0 - - -, f 5;
#X obj 178 575 random 1024;
#X floatatom 184 600 5 0 0 0 - - -, f 5;
#X obj 279 574 random 1024;
#X floatatom 281 599 5 0 0 0 - - -, f 5;
#X obj 372 567 random 1024;
#X floatatom 375 601 5 0 0 0 - - -, f 5;
#X obj 469 569 random 1024;
#X floatatom 477 597 5 0 0 0 - - -, f 5;
#X obj 219 630 pack 0 0 0 0 0;
#X obj 89 484 inlet;
#X obj 96 513 tgl 15 0 empty empty empty 17 7 0 10 -262144 -1 -1 0
1;
#X obj 636 555 random 1024;
#X floatatom 635 576 5 0 0 0 - - -, f 5;
#X obj 727 553 random 1024;
#X floatatom 733 578 5 0 0 0 - - -, f 5;
#X obj 828 552 random 1024;
#X floatatom 830 577 5 0 0 0 - - -, f 5;
#X obj 921 545 random 1024;
#X floatatom 924 579 5 0 0 0 - - -, f 5;
#X obj 1018 547 random 1024;
#X floatatom 1026 575 5 0 0 0 - - -, f 5;
#X obj 768 608 pack 0 0 0 0 0;
#X obj 638 462 inlet;
#X obj 645 491 tgl 15 0 empty empty empty 17 7 0 10 -262144 -1 -1 0
1;
#X obj 1013 107 random 1024;
#X floatatom 1012 128 5 0 0 0 - - -, f 5;
#X obj 1104 105 random 1024;
#X floatatom 1110 130 5 0 0 0 - - -, f 5;
#X obj 1205 104 random 1024;
#X floatatom 1207 129 5 0 0 0 - - -, f 5;
#X obj 1298 97 random 1024;
#X floatatom 1301 131 5 0 0 0 - - -, f 5;
#X obj 1395 99 random 1024;
#X floatatom 1403 127 5 0 0 0 - - -, f 5;
#X obj 1145 160 pack 0 0 0 0 0;
#X obj 1015 14 inlet;
#X obj 1022 43 tgl 15 0 empty empty empty 17 7 0 10 -262144 -1 -1 0
1;
#X obj 1076 336 random 1024;
#X floatatom 1075 357 5 0 0 0 - - -, f 5;
#X obj 1167 334 random 1024;
#X floatatom 1173 359 5 0 0 0 - - -, f 5;
#X obj 1268 333 random 1024;
#X floatatom 1270 358 5 0 0 0 - - -, f 5;
#X obj 1361 326 random 1024;
#X floatatom 1364 360 5 0 0 0 - - -, f 5;
#X obj 1458 328 random 1024;
#X floatatom 1466 356 5 0 0 0 - - -, f 5;
#X obj 1208 389 pack 0 0 0 0 0;
#X obj 1078 243 inlet;
#X obj 1085 272 tgl 15 0 empty empty empty 17 7 0 10 -262144 -1 -1
0 1;
#X obj 1168 181 s ins3;
#X obj 196 409 s ins4;
#X obj 727 394 s ins5;
#X obj 1230 412 s ins6;
#X obj 241 653 s ins7;
#X obj 800 634 s ins8;
#X obj 518 8 inlet;
#X obj 1156 280 sel 0;
#X msg 1294 272 0;
#X obj 1260 299 pack 0 0 0 0 0;
#X obj 117 30 sel 0;
#X msg 255 22 0;
#X obj 221 49 pack 0 0 0 0 0;
#X obj 657 25 sel 0;
#X msg 795 17 0;
#X obj 761 44 pack 0 0 0 0 0;
#X obj 1124 20 sel 0;
#X msg 1262 12 0;
#X obj 1228 39 pack 0 0 0 0 0;
#X obj 697 246 sel 0;
#X msg 835 238 0;
#X obj 801 265 pack 0 0 0 0 0;
#X obj 94 253 sel 0;
#X msg 232 245 0;
#X obj 198 272 pack 0 0 0 0 0;
#X obj 167 503 sel 0;
#X msg 305 495 0;
#X obj 271 522 pack 0 0 0 0 0;
#X obj 711 468 sel 0;
#X msg 849 460 0;
#X obj 815 487 pack 0 0 0 0 0;
#X obj 26 112 random 700;
#X obj 117 110 random 750;
#X obj 42 296 metro 500;
#X obj 26 75 metro 1000;
#X obj 529 68 metro 250;
#X obj 87 540 metro 670;
#X obj 573 281 metro 1050;
#X obj 1013 72 metro 350;
#X obj 636 518 metro 2000;
#X obj 1076 299 metro 650;
#X connect 1 0 9 0;
#X connect 2 0 9 1;
#X connect 3 0 4 0;
#X connect 4 0 9 2;
#X connect 5 0 6 0;
#X connect 6 0 9 3;
#X connect 7 0 8 0;
#X connect 8 0 9 4;
#X connect 9 0 0 0;
#X connect 10 0 11 0;
#X connect 11 0 113 0;
#X connect 11 0 137 0;
#X connect 12 0 13 0;
#X connect 13 0 22 0;
#X connect 14 0 15 0;
#X connect 15 0 22 1;
#X connect 16 0 17 0;
#X connect 17 0 22 2;
#X connect 18 0 19 0;
#X connect 19 0 22 3;
#X connect 20 0 21 0;
#X connect 21 0 22 4;
#X connect 22 0 24 0;
#X connect 23 0 116 0;
#X connect 23 0 138 0;
#X connect 25 0 26 0;
#X connect 26 0 35 0;
#X connect 27 0 28 0;
#X connect 28 0 35 1;
#X connect 29 0 30 0;
#X connect 30 0 35 2;
#X connect 31 0 32 0;
#X connect 32 0 35 3;
#X connect 33 0 34 0;
#X connect 34 0 35 4;
#X connect 35 0 104 0;
#X connect 36 0 37 0;
#X connect 37 0 125 0;
#X connect 37 0 136 0;
#X connect 38 0 39 0;
#X connect 39 0 48 0;
#X connect 40 0 41 0;
#X connect 41 0 48 1;
#X connect 42 0 43 0;
#X connect 43 0 48 2;
#X connect 44 0 45 0;
#X connect 45 0 48 3;
#X connect 46 0 47 0;
#X connect 47 0 48 4;
#X connect 48 0 105 0;
#X connect 49 0 50 0;
#X connect 50 0 122 0;
#X connect 50 0 140 0;
#X connect 51 0 52 0;
#X connect 52 0 61 0;
#X connect 53 0 54 0;
#X connect 54 0 61 1;
#X connect 55 0 56 0;
#X connect 56 0 61 2;
#X connect 57 0 58 0;
#X connect 58 0 61 3;
#X connect 59 0 60 0;
#X connect 60 0 61 4;
#X connect 61 0 107 0;
#X connect 62 0 63 0;
#X connect 63 0 128 0;
#X connect 63 0 139 0;
#X connect 64 0 65 0;
#X connect 65 0 74 0;
#X connect 66 0 67 0;
#X connect 67 0 74 1;
#X connect 68 0 69 0;
#X connect 69 0 74 2;
#X connect 70 0 71 0;
#X connect 71 0 74 3;
#X connect 72 0 73 0;
#X connect 73 0 74 4;
#X connect 74 0 108 0;
#X connect 75 0 76 0;
#X connect 76 0 131 0;
#X connect 76 0 142 0;
#X connect 77 0 78 0;
#X connect 78 0 87 0;
#X connect 79 0 80 0;
#X connect 80 0 87 1;
#X connect 81 0 82 0;
#X connect 82 0 87 2;
#X connect 83 0 84 0;
#X connect 84 0 87 3;
#X connect 85 0 86 0;
#X connect 86 0 87 4;
#X connect 87 0 103 0;
#X connect 88 0 89 0;
#X connect 89 0 119 0;
#X connect 89 0 141 0;
#X connect 90 0 91 0;
#X connect 91 0 100 0;
#X connect 92 0 93 0;
#X connect 93 0 100 1;
#X connect 94 0 95 0;
#X connect 95 0 100 2;
#X connect 96 0 97 0;
#X connect 97 0 100 3;
#X connect 98 0 99 0;
#X connect 99 0 100 4;
#X connect 100 0 106 0;
#X connect 101 0 102 0;
#X connect 102 0 110 0;
#X connect 102 0 143 0;
#X connect 109 0 23 0;
#X connect 110 0 111 0;
#X connect 111 0 112 0;
#X connect 111 0 112 1;
#X connect 111 0 112 2;
#X connect 111 0 112 3;
#X connect 111 0 112 4;
#X connect 112 0 106 0;
#X connect 113 0 114 0;
#X connect 114 0 115 0;
#X connect 114 0 115 1;
#X connect 114 0 115 2;
#X connect 114 0 115 3;
#X connect 114 0 115 4;
#X connect 115 0 0 0;
#X connect 116 0 117 0;
#X connect 117 0 118 0;
#X connect 117 0 118 1;
#X connect 117 0 118 2;
#X connect 117 0 118 3;
#X connect 117 0 118 4;
#X connect 118 0 24 0;
#X connect 119 0 120 0;
#X connect 120 0 121 0;
#X connect 120 0 121 1;
#X connect 120 0 121 2;
#X connect 120 0 121 3;
#X connect 120 0 121 4;
#X connect 121 0 103 0;
#X connect 122 0 123 0;
#X connect 123 0 124 0;
#X connect 123 0 124 1;
#X connect 123 0 124 2;
#X connect 123 0 124 3;
#X connect 123 0 124 4;
#X connect 124 0 105 0;
#X connect 125 0 126 0;
#X connect 126 0 127 0;
#X connect 126 0 127 1;
#X connect 126 0 127 2;
#X connect 126 0 127 3;
#X connect 126 0 127 4;
#X connect 127 0 104 0;
#X connect 128 0 129 0;
#X connect 129 0 130 0;
#X connect 129 0 130 1;
#X connect 129 0 130 2;
#X connect 129 0 130 3;
#X connect 129 0 130 4;
#X connect 130 0 107 0;
#X connect 131 0 132 0;
#X connect 132 0 133 0;
#X connect 132 0 133 1;
#X connect 132 0 133 2;
#X connect 132 0 133 3;
#X connect 132 0 133 4;
#X connect 133 0 108 0;
#X connect 134 0 1 0;
#X connect 135 0 2 0;
#X connect 136 0 25 0;
#X connect 136 0 27 0;
#X connect 136 0 29 0;
#X connect 136 0 31 0;
#X connect 136 0 33 0;
#X connect 137 0 3 0;
#X connect 137 0 5 0;
#X connect 137 0 7 0;
#X connect 137 0 134 0;
#X connect 137 0 135 0;
#X connect 138 0 12 0;
#X connect 138 0 14 0;
#X connect 138 0 16 0;
#X connect 138 0 18 0;
#X connect 138 0 20 0;
#X connect 139 0 51 0;
#X connect 139 0 53 0;
#X connect 139 0 55 0;
#X connect 139 0 57 0;
#X connect 139 0 59 0;
#X connect 140 0 38 0;
#X connect 140 0 40 0;
#X connect 140 0 42 0;
#X connect 140 0 44 0;
#X connect 140 0 46 0;
#X connect 141 0 77 0;
#X connect 141 0 79 0;
#X connect 141 0 81 0;
#X connect 141 0 83 0;
#X connect 141 0 85 0;
#X connect 142 0 64 0;
#X connect 142 0 66 0;
#X connect 142 0 68 0;
#X connect 142 0 70 0;
#X connect 142 0 72 0;
#X connect 143 0 90 0;
#X connect 143 0 92 0;
#X connect 143 0 94 0;
#X connect 143 0 96 0;
#X connect 143 0 98 0;
